<svg xmlns="http://www.w3.org/2000/svg" xmlns:xlink="http://www.w3.org/1999/xlink" width="1024" zoomAndPan="magnify" viewBox="0 0 768 767.999994" height="1024" preserveAspectRatio="xMidYMid meet" version="1.2"><g id="e110531043"><rect x="0" width="768" y="0" height="767.999994" style="fill:#ffffff;fill-opacity:1;stroke:none;"/><rect x="0" width="768" y="0" height="767.999994" style="fill:#ffffff;fill-opacity:1;stroke:none;"/><path style=" stroke:none;fill-rule:nonzero;fill:#1d71b8;fill-opacity:1;" d="M 359.875 83.832031 C 348.804688 90.429688 348.714844 91.066406 352.929688 137.882812 C 355.683594 168.722656 360.152344 177.96875 372.226562 177.96875 C 384.300781 177.96875 385.679688 172.921875 385.679688 130.3125 C 385.679688 93.589844 385.117188 89.113281 379.796875 83.902344 C 372.570312 76.828125 371.667969 76.828125 359.890625 83.832031 Z M 359.875 83.832031 "/><path style=" stroke:none;fill-rule:nonzero;fill:#1d71b8;fill-opacity:1;" d="M 219.996094 136.25 C 217.277344 136.824219 214.082031 140.691406 213.070312 144.609375 C 211.1875 151.925781 224.328125 174.042969 250.886719 208.246094 C 261.550781 221.996094 275.441406 223.960938 278.390625 212.171875 C 280.824219 202.351562 280.824219 202.351562 257.359375 169.28125 C 233.699219 136 229.917969 136.25 219.996094 136.25 Z M 219.996094 136.25 "/><path style=" stroke:none;fill-rule:nonzero;fill:#1d71b8;fill-opacity:1;" d="M 549.648438 142.085938 C 535.015625 157.789062 491.628906 220.042969 491.628906 225.34375 C 491.628906 233.195312 502.878906 240.375 509.574219 236.800781 C 515.867188 233.445312 570.273438 162.542969 573.863281 153.023438 C 576.828125 145.171875 570.007812 133.957031 562.273438 133.957031 C 557.210938 133.957031 549.945312 142.085938 549.648438 142.085938 Z M 549.648438 142.085938 "/><path style=" stroke:none;fill-rule:nonzero;fill:#1d71b8;fill-opacity:1;" d="M 341.378906 221.953125 C 296.246094 236.574219 264.976562 263.339844 244.742188 304.675781 C 224.636719 345.734375 221.636719 391.582031 235.355469 448.503906 C 244.597656 486.914062 271.226562 538.414062 290.9375 556.007812 C 296.714844 561.160156 297.300781 564.257812 296.570312 585.871094 C 295.648438 613.058594 299.371094 620.648438 315.328125 624.121094 C 323.371094 625.875 323.738281 626.65625 323.738281 642.074219 C 323.738281 651.011719 325.675781 661.921875 328.101562 666.597656 C 334.292969 678.535156 356.253906 688.394531 379.800781 689.816406 C 398.304688 690.9375 399.550781 690.589844 408.398438 681.738281 C 417.335938 672.800781 426.894531 649.222656 426.894531 636.042969 C 426.894531 631.695312 430.539062 628.140625 439.230469 623.996094 C 458.097656 614.996094 463.488281 605.488281 463.984375 580.257812 C 464.375 561.757812 465.730469 556.949219 475.273438 540.171875 C 516.746094 467.289062 530.238281 426.539062 530.03125 374.78125 C 529.707031 293.609375 486.492188 239.667969 429.382812 221.921875 C 405.839844 214.605469 364.027344 214.632812 341.375 221.976562 Z M 433.605469 255.644531 C 487.464844 280.296875 512.917969 350.675781 494.53125 424.101562 C 488.640625 447.644531 450.566406 527.789062 437.578125 544.078125 C 430.097656 553.4375 431.515625 552.253906 390.433594 548.003906 C 391.808594 514.167969 393.574219 423.015625 410.335938 390.460938 C 414.375 382.628906 416.785156 381.207031 426.035156 381.207031 C 456.289062 381.207031 471.511719 348.078125 447.0625 335.390625 C 428.800781 325.917969 405.648438 338.039062 389.53125 365.507812 C 382.785156 377.003906 376.703125 380.195312 376.703125 372.238281 C 376.703125 366.050781 360.722656 345.574219 351.46875 339.882812 C 339.132812 332.316406 319.460938 331.714844 311.664062 338.71875 C 304.644531 345.03125 304.222656 356.816406 310.6875 366.070312 C 314.902344 372.09375 317.5625 372.878906 329.601562 371.675781 C 343.355469 370.300781 343.746094 370.492188 349.777344 381.207031 C 366.621094 411.136719 364.902344 438.859375 364.902344 548.84375 L 322.59375 548.84375 L 310.300781 535.667969 C 285.546875 509.101562 264.089844 458.015625 258.203125 411.484375 C 249.871094 345.609375 276.046875 287.667969 326.234375 260.90625 C 349.609375 248.453125 362.117188 245.78125 391.828125 247.011719 C 420.859375 248.207031 433.902344 255.617188 433.605469 255.617188 Z M 435.441406 580.238281 C 436.128906 580.859375 435.441406 585.003906 433.902344 589.492188 L 431.09375 597.621094 L 325.117188 597.621094 L 323.433594 575.191406 L 378.796875 577.160156 C 430.078125 578.972656 436.484375 580.238281 435.441406 580.238281 Z M 392.96875 653.808594 C 388.714844 663.785156 387.921875 664.21875 377.554688 662.316406 C 360.171875 659.117188 350.359375 652.765625 350.359375 644.699219 C 350.359375 629.890625 352.601562 628.445312 375.59375 628.445312 C 396.910156 628.445312 397.460938 628.628906 397.460938 635.871094 C 397.832031 635.882812 396.65625 645.152344 392.957031 653.824219 Z M 392.96875 653.808594 "/><path style=" stroke:none;fill-rule:nonzero;fill:#1d71b8;fill-opacity:1;" d="M 105.339844 244.292969 C 102.550781 250.484375 102.878906 252.722656 107.308594 257.613281 C 113.902344 264.902344 174.125 298.820312 180.472656 298.820312 C 188.035156 298.820312 194.28125 287.324219 190.785156 279.757812 C 187.292969 272.195312 124.929688 236.867188 115.152344 236.867188 C 107.734375 236.839844 105.652344 244.292969 105.339844 244.292969 Z M 105.339844 244.292969 "/><path style=" stroke:none;fill-rule:nonzero;fill:#1d71b8;fill-opacity:1;" d="M 572.6875 299.628906 C 570.433594 303.273438 570.441406 306.082031 572.6875 309.722656 C 579.226562 320.1875 590.003906 317.542969 629.804688 295.675781 C 673.253906 271.816406 680.550781 264.015625 668.488281 254.269531 C 664.570312 251.101562 660.5625 248.613281 659.378906 248.613281 C 655.542969 248.613281 578.828125 289.738281 572.6875 299.628906 Z M 572.6875 299.628906 "/><path style=" stroke:none;fill-rule:nonzero;fill:#1d71b8;fill-opacity:1;" d="M 81.515625 366.863281 C 74.269531 370.988281 75.066406 383.15625 82.890625 388.238281 C 88.921875 392.144531 147.371094 404.742188 159.425781 404.742188 C 165.3125 404.742188 173.722656 397.175781 173.722656 391.847656 C 173.722656 381.871094 165.59375 378.269531 126.628906 370.980469 C 104.785156 366.902344 86.839844 363.609375 86.839844 363.6875 C 86.839844 363.761719 84.316406 365.265625 81.515625 366.863281 Z M 81.515625 366.863281 "/><path style=" stroke:none;fill-rule:nonzero;fill:#1d71b8;fill-opacity:1;" d="M 585.683594 392.8125 C 580.003906 394.1875 578.039062 396.882812 577.34375 404.171875 C 576.113281 417.105469 580.78125 418.402344 637.960938 421.035156 L 685.617188 423.230469 C 691.660156 409.699219 693.449219 408.371094 686.882812 401.648438 C 681.980469 396.628906 675.949219 395.527344 645.949219 394.214844 C 600.019531 392.199219 594.890625 390.554688 585.683594 392.839844 Z M 585.683594 392.8125 "/><path style=" stroke:none;fill-rule:nonzero;fill:#1d71b8;fill-opacity:1;" d="M 136.734375 500.707031 C 99.171875 508.867188 91.789062 514.308594 101.070312 526.980469 C 106.035156 533.757812 115.152344 533.546875 156.078125 525.679688 C 188.3125 519.492188 198.898438 513.199219 194.972656 502.589844 C 190.703125 491.046875 182.425781 490.777344 136.730469 500.707031 Z M 136.734375 500.707031 "/><path style=" stroke:none;fill-rule:nonzero;fill:#1d71b8;fill-opacity:1;" d="M 552.707031 524.457031 C 555.738281 529.199219 629.550781 555.273438 636.839844 554.171875 C 639.898438 553.710938 644.320312 550.527344 646.5625 547.160156 C 653.3125 537.03125 644.128906 529.96875 606.847656 516.742188 C 570.125 503.675781 561.8125 502.488281 554.984375 509.316406 C 556.796875 509.316406 546.019531 513.976562 552.707031 524.457031 Z M 552.707031 524.457031 "/></g></svg>